<svg width="53" height="87" viewBox="0 0 53 87" fill="none" xmlns="http://www.w3.org/2000/svg">
<path fill-rule="evenodd" clip-rule="evenodd" d="M52.7242 26.1453C52.7242 40.585 41.0186 52.2906 26.5789 52.2906C12.1393 52.2906 0.433594 40.585 0.433594 26.1453C0.433594 11.7057 12.1393 0 26.5789 0C41.0186 0 52.7242 11.7057 52.7242 26.1453ZM22.0205 15.0493C22.8326 14.6776 23.6799 14.4035 24.5449 14.2288C26.1192 13.911 27.7522 13.9225 29.339 14.2745L27.2654 17.3196C27.1199 17.5333 26.9898 17.7569 26.876 17.9884C26.6189 18.5114 26.4445 19.0744 26.3616 19.6528C25.8343 23.3282 29.0229 26.4957 32.6868 25.8937C33.2909 25.7944 33.8725 25.5951 34.4081 25.3058C34.6266 25.1877 34.8375 25.0546 35.0392 24.9071L38.0428 22.711C38.4448 24.289 38.5067 25.924 38.2364 27.5101C38.0886 28.3771 37.8415 29.2296 37.4965 30.0501C36.5202 32.3718 34.8129 34.3114 32.6338 35.5742C30.4547 36.837 27.923 37.3541 25.4232 37.0468C22.9235 36.7396 20.5923 35.6249 18.7839 33.8719C16.9754 32.119 15.7885 29.8237 15.4035 27.3348C15.0185 24.8458 15.4564 22.2992 16.6507 20.0818C17.845 17.8644 19.7304 16.0974 22.0205 15.0493Z" fill="#E2012D"/>
<path d="M24.5449 14.2288C23.6799 14.4035 22.8326 14.6776 22.0205 15.0493C19.7304 16.0974 17.845 17.8644 16.6507 20.0818C15.4564 22.2992 15.0185 24.8458 15.4035 27.3348C15.7885 29.8237 16.9754 32.119 18.7839 33.8719C20.5923 35.6249 22.9235 36.7396 25.4232 37.0468C27.923 37.3541 30.4547 36.837 32.6338 35.5742C34.8129 34.3114 36.5202 32.3718 37.4965 30.0501C37.8415 29.2296 38.0886 28.3771 38.2364 27.5101C38.5067 25.924 38.4448 24.289 38.0428 22.711L35.0392 24.9071C34.8375 25.0546 34.6266 25.1877 34.4081 25.3058C33.8725 25.5951 33.2909 25.7944 32.6868 25.8937C29.0229 26.4957 25.8343 23.3282 26.3616 19.6528C26.4445 19.0744 26.6189 18.5114 26.876 17.9884C26.9898 17.7569 27.1199 17.5333 27.2654 17.3196L29.339 14.2745C27.7522 13.9225 26.1192 13.911 24.5449 14.2288Z" fill="black"/>
</svg>
