<svg width="98" height="108" viewBox="0 0 98 108" fill="none" xmlns="http://www.w3.org/2000/svg">
<g filter="url(#filter0_d_162_666)">
<path d="M60.2088 46.9664C60.8306 49.407 60.6388 51.9839 59.6625 54.3055C58.6863 56.6272 56.9789 58.5667 54.7998 59.8296C52.6207 61.0924 50.089 61.6094 47.5892 61.3022C45.0895 60.995 42.7583 59.8802 40.9499 58.1273C39.1414 56.3744 37.9546 54.0791 37.5696 51.5901C37.1845 49.1012 37.6225 46.5546 38.8167 44.3372C40.011 42.1198 41.8964 40.3528 44.1865 39.3046C46.4766 38.2565 49.0463 37.9844 51.5051 38.5299L49.4314 41.575C48.957 42.2716 48.6473 43.0739 48.5276 43.9081C48.0004 47.5835 51.189 50.7511 54.8528 50.149C55.7035 50.0092 56.5093 49.6713 57.2052 49.1625L60.2088 46.9664Z" fill="#E2012D"/>
</g>
<g opacity="0.45">
<path d="M76.7642 61.1374C75.7638 63.5896 74.448 65.8795 72.8672 67.9569C82.3544 62.6222 90.8167 55.9229 95.0804 52.3468C96.9392 50.7878 98 49.8224 98 49.8224C98 49.8224 96.9392 48.857 95.0804 47.2981C90.8167 43.722 82.3544 37.0226 72.8672 31.688C74.448 33.7653 75.7638 36.0553 76.7642 38.5074C77.5265 38.997 78.2776 39.4908 79.0155 39.9858C83.743 43.1574 87.8597 46.3363 90.7963 48.7248C91.2738 49.1132 91.7195 49.4802 92.131 49.8224C91.7195 50.1646 91.2738 50.5316 90.7963 50.92C87.8597 53.3086 83.743 56.4875 79.0155 59.659C78.2776 60.1541 77.5265 60.6478 76.7642 61.1374Z" fill="#E2012D"/>
<path d="M0 49.8224C0 49.8224 1.06083 50.7878 2.91958 52.3468C7.18329 55.9228 15.6455 62.6221 25.1326 67.9568C23.5518 65.8794 22.2361 63.5895 21.2357 61.1373C20.4735 60.6478 19.7223 60.154 18.9845 59.659C14.257 56.4875 10.1403 53.3086 7.20372 50.92C6.72624 50.5316 6.28051 50.1646 5.869 49.8224C6.28051 49.4802 6.72624 49.1132 7.20372 48.7248C10.1403 46.3363 14.257 43.1574 18.9845 39.9858C19.7223 39.4908 20.4735 38.9971 21.2357 38.5075C22.2361 36.0554 23.5518 33.7654 25.1326 31.6881C15.6455 37.0227 7.18329 43.722 2.91958 47.2981C1.06083 48.857 0 49.8224 0 49.8224Z" fill="#E2012D"/>
</g>
<g filter="url(#filter1_d_162_666)">
<path d="M73.152 49.8221C73.152 63.1604 62.3391 73.9733 49.0008 73.9733C35.6625 73.9733 24.8496 63.1604 24.8496 49.8221C24.8496 36.4837 35.6625 25.6709 49.0008 25.6709C62.3391 25.6709 73.152 36.4837 73.152 49.8221Z" stroke="#E2012D" stroke-width="3.98827" shape-rendering="crispEdges"/>
</g>
<path d="M19.4734 100.17V96.4228H23.3207V107.089H19.4734V102.797H13.2001V107.089H9.33845V96.4228H13.2001V100.17H19.4734ZM31.1791 98.3177C32.4615 98.3177 33.5525 98.4995 34.4521 98.8632C35.3613 99.2269 36.0504 99.7532 36.5193 100.442C36.9978 101.122 37.2371 101.94 37.2371 102.897V103.471H28.5089C28.6046 104.017 28.8822 104.428 29.3416 104.706C29.8009 104.983 30.4182 105.122 31.1934 105.122C31.9495 105.122 32.5428 105.022 32.9735 104.821C33.4137 104.61 33.6961 104.328 33.8205 103.974H37.1653C37.0505 104.625 36.7586 105.208 36.2896 105.725C35.8302 106.232 35.1699 106.634 34.3086 106.931C33.4568 107.228 32.4136 107.376 31.1791 107.376C29.9445 107.376 28.8678 107.199 27.9491 106.845C27.0303 106.481 26.3173 105.955 25.8101 105.266C25.3029 104.567 25.0493 103.725 25.0493 102.739C25.0493 101.811 25.3029 101.017 25.8101 100.356C26.3173 99.6862 27.0303 99.179 27.9491 98.8345C28.8678 98.4899 29.9445 98.3177 31.1791 98.3177ZM31.1791 100.557C30.5091 100.557 29.9541 100.672 29.5138 100.902C29.0736 101.131 28.7721 101.457 28.6094 101.878H33.8205C33.6578 101.485 33.3467 101.17 32.8874 100.93C32.4376 100.682 31.8681 100.557 31.1791 100.557ZM41.5858 107.089H37.3796L40.868 102.596L37.8677 98.5904H42.0308L43.3946 101.189L43.5955 101.605H43.6242L45.189 98.5904H49.3521L46.3518 102.596L49.8402 107.089H45.634L43.7822 104.103L43.6242 103.816H43.5955L43.4376 104.117L41.5858 107.089ZM57.0115 107.376C55.5473 107.376 54.3318 107.199 53.3652 106.845C52.4082 106.491 51.7 106.017 51.2406 105.424C50.7812 104.83 50.5372 104.165 50.5085 103.428H54.1835C54.2122 103.926 54.4419 104.294 54.8725 104.534C55.3032 104.773 56.0258 104.892 57.0402 104.892C57.9111 104.892 58.5332 104.816 58.9064 104.663C59.2892 104.5 59.4807 104.266 59.4807 103.959C59.4807 103.778 59.4184 103.634 59.294 103.529C59.1792 103.423 58.916 103.328 58.5045 103.242C58.093 103.146 57.447 103.05 56.5665 102.954C55.0352 102.811 53.8581 102.576 53.035 102.251C52.212 101.926 51.6521 101.533 51.3555 101.074C51.0683 100.615 50.9248 100.059 50.9248 99.4087C50.9248 98.4708 51.3794 97.7004 52.2886 97.0975C53.1977 96.485 54.6811 96.1787 56.7388 96.1787C58.7964 96.1787 60.3276 96.5328 61.3325 97.241C62.3374 97.9396 62.8877 98.8919 62.9834 100.098H59.4519C59.3754 99.6575 59.1457 99.3082 58.7629 99.0498C58.3896 98.7818 57.7628 98.6478 56.8823 98.6478C56.1071 98.6478 55.552 98.7196 55.2171 98.8632C54.8917 99.0067 54.729 99.2125 54.729 99.4805C54.729 99.6432 54.7721 99.7819 54.8582 99.8968C54.9443 100.012 55.1453 100.117 55.4611 100.213C55.7865 100.308 56.2794 100.39 56.9397 100.457C58.7485 100.629 60.1123 100.887 61.031 101.232C61.9594 101.567 62.5671 101.945 62.8542 102.366C63.1413 102.787 63.2849 103.285 63.2849 103.859C63.2849 106.204 61.1937 107.376 57.0115 107.376ZM70.3622 98.3177C71.6446 98.3177 72.7356 98.4995 73.6353 98.8632C74.5444 99.2269 75.2335 99.7532 75.7024 100.442C76.181 101.122 76.4202 101.94 76.4202 102.897V103.471H67.6921C67.7878 104.017 68.0653 104.428 68.5247 104.706C68.9841 104.983 69.6014 105.122 70.3766 105.122C71.1326 105.122 71.726 105.022 72.1566 104.821C72.5969 104.61 72.8792 104.328 73.0036 103.974H76.3484C76.2336 104.625 75.9417 105.208 75.4728 105.725C75.0134 106.232 74.353 106.634 73.4917 106.931C72.6399 107.228 71.5968 107.376 70.3622 107.376C69.1276 107.376 68.051 107.199 67.1322 106.845C66.2135 106.481 65.5005 105.955 64.9933 105.266C64.486 104.567 64.2324 103.725 64.2324 102.739C64.2324 101.811 64.486 101.017 64.9933 100.356C65.5005 99.6862 66.2135 99.179 67.1322 98.8345C68.051 98.4899 69.1276 98.3177 70.3622 98.3177ZM70.3622 100.557C69.6923 100.557 69.1372 100.672 68.697 100.902C68.2567 101.131 67.9553 101.457 67.7926 101.878H73.0036C72.8409 101.485 72.5299 101.17 72.0705 100.93C71.6207 100.682 71.0513 100.557 70.3622 100.557ZM83.6119 107.376C82.339 107.376 81.2336 107.204 80.2958 106.859C79.3674 106.505 78.6544 105.988 78.1568 105.309C77.6591 104.629 77.4103 103.806 77.4103 102.84C77.4103 101.883 77.6591 101.064 78.1568 100.385C78.6544 99.7054 79.3674 99.1934 80.2958 98.8488C81.2241 98.4947 82.3294 98.3177 83.6119 98.3177C85.4015 98.3177 86.8084 98.6574 87.8324 99.3369C88.8564 100.007 89.4306 100.93 89.555 102.108H86.1241C86.0092 101.686 85.7317 101.332 85.2915 101.045C84.8512 100.758 84.2818 100.615 83.5832 100.615C83.0664 100.615 82.5974 100.71 82.1763 100.902C81.7552 101.083 81.4251 101.342 81.1858 101.677C80.9465 102.012 80.8269 102.399 80.8269 102.84C80.8269 103.289 80.9465 103.682 81.1858 104.017C81.4251 104.352 81.7552 104.615 82.1763 104.806C82.5974 104.988 83.0664 105.079 83.5832 105.079C84.2914 105.079 84.8608 104.94 85.2915 104.663C85.7317 104.376 86.0092 104.026 86.1241 103.615H89.555C89.4306 104.792 88.8564 105.716 87.8324 106.385C86.8084 107.046 85.4015 107.376 83.6119 107.376Z" fill="white"/>
<defs>
<filter id="filter0_d_162_666" x="10.6367" y="11.4585" width="76.7266" height="76.7271" filterUnits="userSpaceOnUse" color-interpolation-filters="sRGB">
<feFlood flood-opacity="0" result="BackgroundImageFix"/>
<feColorMatrix in="SourceAlpha" type="matrix" values="0 0 0 0 0 0 0 0 0 0 0 0 0 0 0 0 0 0 127 0" result="hardAlpha"/>
<feOffset/>
<feGaussianBlur stdDeviation="13.3984"/>
<feComposite in2="hardAlpha" operator="out"/>
<feColorMatrix type="matrix" values="0 0 0 0 0.886275 0 0 0 0 0.00392157 0 0 0 0 0.176471 0 0 0 1 0"/>
<feBlend mode="normal" in2="BackgroundImageFix" result="effect1_dropShadow_162_666"/>
<feBlend mode="normal" in="SourceGraphic" in2="effect1_dropShadow_162_666" result="shape"/>
</filter>
<filter id="filter1_d_162_666" x="2.41328" y="3.23457" width="93.1754" height="93.1749" filterUnits="userSpaceOnUse" color-interpolation-filters="sRGB">
<feFlood flood-opacity="0" result="BackgroundImageFix"/>
<feColorMatrix in="SourceAlpha" type="matrix" values="0 0 0 0 0 0 0 0 0 0 0 0 0 0 0 0 0 0 127 0" result="hardAlpha"/>
<feOffset/>
<feGaussianBlur stdDeviation="10.2211"/>
<feComposite in2="hardAlpha" operator="out"/>
<feColorMatrix type="matrix" values="0 0 0 0 0.886275 0 0 0 0 0.00392157 0 0 0 0 0.176471 0 0 0 0.7 0"/>
<feBlend mode="normal" in2="BackgroundImageFix" result="effect1_dropShadow_162_666"/>
<feBlend mode="normal" in="SourceGraphic" in2="effect1_dropShadow_162_666" result="shape"/>
</filter>
</defs>
</svg>
